<svg width="24" height="24" viewBox="0 0 24 24" fill="none" xmlns="http://www.w3.org/2000/svg">
<mask id="mask0_1163_70" style="mask-type:alpha" maskUnits="userSpaceOnUse" x="0" y="0" width="24" height="24">
<rect width="24" height="24" fill="#D9D9D9"/>
</mask>
<g mask="url(#mask0_1163_70)">
<path d="M6.8 23C6.3 23 5.875 22.8167 5.525 22.45C5.175 22.0833 5 21.6381 5 21.1143V2.88571C5 2.3619 5.175 1.91667 5.525 1.55C5.875 1.18333 6.3 1 6.8 1H16.2C16.7 1 17.125 1.18333 17.475 1.55C17.825 1.91667 18 2.3619 18 2.88571V21.1143C18 21.6381 17.825 22.0833 17.475 22.45C17.125 22.8167 16.7 23 16.2 23H6.8ZM6.5 18.5476H16.5V5.45238H6.5V18.5476Z" fill="#1C1B1F"/>
</g>
</svg>
