<svg width="24" height="25" viewBox="0 0 24 25" fill="none" xmlns="http://www.w3.org/2000/svg">
<path d="M15.4892 1.88605V22.1611H1.88605V1.88605H15.4892ZM16.18 0H1.19528C0.535167 0 0 0.634185 0 1.41454V22.6326C0 23.413 0.535167 24.0472 1.19528 24.0472H16.18C16.8401 24.0472 17.3752 23.413 17.3752 22.6326V1.41454C17.3752 0.634185 16.8401 0 16.18 0V0Z" fill="#004899"/>
<path d="M11.8114 17.3992V22.1379H5.5639V17.3992H11.8114ZM13.2496 15.5131H4.10457C3.7085 15.5131 3.67785 15.7371 3.67785 16.0129V23.5217C3.67785 23.7976 3.71086 24.0215 4.10457 24.0215H13.2496C13.6456 24.0215 13.6975 23.7976 13.6975 23.5217V16.0129C13.6975 15.7371 13.6456 15.5131 13.2496 15.5131ZM22.114 9.2184V22.1379H17.4012V9.2184H22.114ZM23.6205 7.33235H15.8782C15.5435 7.33235 15.5175 7.77086 15.5175 8.3131V23.0408C15.5175 23.583 15.5435 24.0215 15.8782 24.0215H23.6205C23.9553 24.0215 24.0001 23.583 24.0001 23.0408V8.3131C24.0001 7.77086 23.9553 7.33235 23.6205 7.33235ZM6.76626 5.16339H4.26724C3.74622 5.16339 3.32422 4.74139 3.32422 4.22037C3.32422 3.69935 3.74622 3.27734 4.26724 3.27734H6.76626C7.28728 3.27734 7.70929 3.69935 7.70929 4.22037C7.70929 4.74139 7.28728 5.16339 6.76626 5.16339ZM13.1317 5.16339H10.6327C10.1116 5.16339 9.68964 4.74139 9.68964 4.22037C9.68964 3.69935 10.1116 3.27734 10.6327 3.27734H13.1317C13.6527 3.27734 14.0747 3.69935 14.0747 4.22037C14.0747 4.74139 13.6527 5.16339 13.1317 5.16339ZM6.76626 8.86477H4.26724C3.74622 8.86477 3.32422 8.44277 3.32422 7.92174C3.32422 7.40072 3.74622 6.97872 4.26724 6.97872H6.76626C7.28728 6.97872 7.70929 7.40072 7.70929 7.92174C7.70929 8.44277 7.28728 8.86477 6.76626 8.86477ZM13.1317 8.86477H10.6327C10.1116 8.86477 9.68964 8.44277 9.68964 7.92174C9.68964 7.40072 10.1116 6.97872 10.6327 6.97872H13.1317C13.6527 6.97872 14.0747 7.40072 14.0747 7.92174C14.0747 8.44277 13.6527 8.86477 13.1317 8.86477ZM6.76626 12.5661H4.26724C3.74622 12.5661 3.32422 12.1441 3.32422 11.6231C3.32422 11.1021 3.74622 10.6801 4.26724 10.6801H6.76626C7.28728 10.6801 7.70929 11.1021 7.70929 11.6231C7.70929 12.1441 7.28728 12.5661 6.76626 12.5661ZM13.1317 12.5661H10.6327C10.1116 12.5661 9.68964 12.1441 9.68964 11.6231C9.68964 11.1021 10.1116 10.6801 10.6327 10.6801H13.1317C13.6527 10.6801 14.0747 11.1021 14.0747 11.6231C14.0747 12.1441 13.6527 12.5661 13.1317 12.5661Z" fill="#004899"/>
<path d="M17.9646 13.0384H17.0286C16.5076 13.0384 16.0856 12.6164 16.0856 12.0954C16.0856 11.5743 16.5076 11.1523 17.0286 11.1523H17.9646C18.4856 11.1523 18.9076 11.5743 18.9076 12.0954C18.9076 12.6164 18.4856 13.0384 17.9646 13.0384ZM17.9646 17.2584H16.9508C16.4298 17.2584 16.0078 16.8364 16.0078 16.3154C16.0078 15.7944 16.4298 15.3724 16.9508 15.3724H17.9646C18.4856 15.3724 18.9076 15.7944 18.9076 16.3154C18.9076 16.8364 18.4856 17.2584 17.9646 17.2584ZM17.9646 21.4785H17.1064C16.5854 21.4785 16.1634 21.0565 16.1634 20.5354C16.1634 20.0144 16.5854 19.5924 17.1064 19.5924H17.9646C18.4856 19.5924 18.9076 20.0144 18.9076 20.5354C18.9076 21.0565 18.4856 21.4785 17.9646 21.4785Z" fill="#004899"/>
</svg>
