<svg width="20" height="26" opacity="0.5" viewBox="0 0 26 26" fill="none" xmlns="http://www.w3.org/2000/svg">
<g clip-path="url(#clip0_685_104)">
<path d="M25.2908 12.8098C22.9371 8.21734 18.2774 5.11014 12.9419 5.11014C7.60637 5.11014 2.94534 8.21951 0.592912 12.8102C0.493625 13.0066 0.441895 13.2236 0.441895 13.4437C0.441895 13.6638 0.493625 13.8808 0.592912 14.0772C2.94664 18.6696 7.60637 21.7768 12.9419 21.7768C18.2774 21.7768 22.9384 18.6674 25.2908 14.0767C25.3901 13.8803 25.4418 13.6633 25.4418 13.4433C25.4418 13.2232 25.3901 13.0062 25.2908 12.8098V12.8098ZM12.9419 19.6935C11.7057 19.6935 10.4974 19.3269 9.46956 18.6402C8.44175 17.9534 7.64067 16.9773 7.16762 15.8352C6.69458 14.6932 6.5708 13.4365 6.81196 12.2242C7.05312 11.0118 7.64837 9.89813 8.52245 9.02405C9.39653 8.14998 10.5102 7.55472 11.7226 7.31356C12.9349 7.07241 14.1916 7.19618 15.3336 7.66922C16.4757 8.14227 17.4518 8.94335 18.1386 9.97116C18.8253 10.999 19.1919 12.2073 19.1919 13.4435C19.1923 14.2643 19.0309 15.0773 18.7169 15.8357C18.403 16.5942 17.9426 17.2833 17.3622 17.8638C16.7817 18.4442 16.0926 18.9046 15.3341 19.2185C14.5756 19.5325 13.7627 19.6939 12.9419 19.6935V19.6935ZM12.9419 9.2768C12.57 9.282 12.2005 9.33733 11.8433 9.4413C12.1377 9.84133 12.279 10.3336 12.2415 10.8289C12.204 11.3241 11.9903 11.7895 11.6391 12.1407C11.2879 12.4919 10.8225 12.7056 10.3273 12.7431C9.83201 12.7806 9.33973 12.6393 8.9397 12.3449C8.71191 13.1842 8.75303 14.0737 9.05727 14.8883C9.36151 15.703 9.91356 16.4017 10.6357 16.8862C11.3579 17.3706 12.2138 17.6164 13.0829 17.589C13.9521 17.5615 14.7907 17.2622 15.4809 16.7331C16.171 16.204 16.6779 15.4719 16.9301 14.6396C17.1823 13.8074 17.1672 12.9171 16.8869 12.0939C16.6066 11.2707 16.0752 10.5562 15.3675 10.0508C14.6598 9.54546 13.8115 9.27476 12.9419 9.2768V9.2768Z" fill="black"/>
</g>
<defs>
<clipPath id="clip0_685_104">
<rect width="25" height="25" fill="white" transform="translate(0.441895 0.943481)"/>
</clipPath>
</defs>
</svg>
