<svg width="20" height="25" viewBox="0 0 25 25" fill="none" xmlns="http://www.w3.org/2000/svg">
<g clip-path="url(#clip0_685_91)">
<path d="M12.4999 18.125C9.53702 18.125 7.13859 15.8317 6.91788 12.9254L2.82023 9.75861C2.28156 10.4344 1.78585 11.1488 1.38585 11.9301C1.29649 12.1069 1.24994 12.3021 1.24994 12.5002C1.24994 12.6983 1.29649 12.8936 1.38585 13.0703C3.50421 17.2035 7.69796 20 12.4999 20C13.5511 20 14.5652 19.8438 15.5425 19.5914L13.5155 18.0231C13.1808 18.0877 12.8408 18.1218 12.4999 18.125ZM24.7585 20.3945L20.4402 17.057C21.7519 15.9515 22.8308 14.5962 23.614 13.0699C23.7033 12.8932 23.7499 12.6979 23.7499 12.4998C23.7499 12.3018 23.7033 12.1065 23.614 11.9297C21.4956 7.7965 17.3019 5.00001 12.4999 5.00001C10.4888 5.00245 8.51031 5.50875 6.74523 6.47267L1.7757 2.63165C1.71089 2.58122 1.63679 2.54406 1.55762 2.52229C1.47844 2.50051 1.39576 2.49455 1.31428 2.50474C1.2328 2.51494 1.15413 2.54109 1.08277 2.5817C1.0114 2.6223 0.948736 2.67658 0.898353 2.74142L0.131556 3.72853C0.0298368 3.85938 -0.015743 4.02528 0.00484145 4.18973C0.0254259 4.35419 0.110489 4.50373 0.241322 4.60548L23.2241 22.3684C23.2889 22.4188 23.363 22.456 23.4422 22.4777C23.5214 22.4995 23.6041 22.5055 23.6856 22.4953C23.767 22.4851 23.8457 22.4589 23.9171 22.4183C23.9884 22.3777 24.0511 22.3234 24.1015 22.2586L24.8687 21.2715C24.9703 21.1406 25.0159 20.9747 24.9952 20.8102C24.9745 20.6457 24.8894 20.4962 24.7585 20.3945ZM17.5819 14.8477L16.0468 13.6609C16.1761 13.2873 16.2447 12.8954 16.2499 12.5C16.2575 11.9212 16.1293 11.3487 15.8755 10.8284C15.6217 10.3082 15.2495 9.85468 14.7886 9.50439C14.3278 9.1541 13.7912 8.91677 13.2221 8.81147C12.6529 8.70617 12.0669 8.73582 11.5112 8.89806C11.7468 9.21724 11.8742 9.60332 11.8749 10C11.8691 10.132 11.8489 10.263 11.8148 10.3906L8.93937 8.16837C9.93819 7.33369 11.1982 6.87597 12.4999 6.87501C13.2387 6.8746 13.9704 7.01981 14.653 7.30235C15.3356 7.58489 15.9559 7.99921 16.4783 8.52162C17.0007 9.04403 17.415 9.66429 17.6976 10.3469C17.9801 11.0296 18.1253 11.7612 18.1249 12.5C18.1249 13.3449 17.9183 14.1324 17.5819 14.8481V14.8477Z" fill="#7B7B7B"/>
</g>
<defs>
<clipPath id="clip0_685_91">
<rect width="25" height="25" fill="white"/>
</clipPath>
</defs>
</svg>
