<svg width="128" height="128" viewBox="0 0 128 128" fill="none" xmlns="http://www.w3.org/2000/svg">
<path d="M122.515 63.124C115.282 52.0195 105.231 43.0342 93.388 37.086L101.237 29.237C101.565 28.9089 101.749 28.464 101.749 28C101.749 27.536 101.565 27.0911 101.237 26.763C100.909 26.4349 100.464 26.2506 100 26.2506C99.536 26.2506 99.091 26.4349 98.763 26.763L90 35.522C81.7821 32.0146 72.935 30.2207 64 30.25C24.941 30.25 5.67497 62.8 5.48497 63.124C5.3312 63.3903 5.25024 63.6925 5.25024 64C5.25024 64.3075 5.3312 64.6097 5.48497 64.876C12.7175 75.9806 22.7685 84.966 34.611 90.914L26.763 98.763C26.6005 98.9254 26.4717 99.1183 26.3837 99.3305C26.2958 99.5428 26.2506 99.7703 26.2506 100C26.2506 100.23 26.2958 100.457 26.3837 100.669C26.4717 100.882 26.6005 101.075 26.763 101.237C26.9254 101.399 27.1183 101.528 27.3305 101.616C27.5428 101.704 27.7702 101.749 28 101.749C28.2297 101.749 28.4572 101.704 28.6694 101.616C28.8817 101.528 29.0745 101.399 29.237 101.237L38 92.478C46.2179 95.9854 55.0649 97.7793 64 97.75C103.059 97.75 122.325 65.205 122.515 64.876C122.669 64.6097 122.75 64.3075 122.75 64C122.75 63.6925 122.669 63.3903 122.515 63.124ZM37.22 88.305C25.8595 82.8231 16.1479 74.4389 9.06697 64C12.378 58.94 30.552 33.75 64 33.75C71.9873 33.7251 79.905 35.2359 87.322 38.2L81.622 43.9C76.521 39.4142 69.9035 37.0388 63.1142 37.2565C56.3249 37.4741 49.8731 40.2686 45.07 45.072C40.2669 49.8753 37.4728 56.3272 37.2554 63.1166C37.0381 69.9059 39.4139 76.5233 43.9 81.624L37.22 88.305ZM71.657 58.817C72.8631 60.5962 73.4116 62.7401 73.2081 64.88C73.0046 67.0199 72.0618 69.0219 70.5419 70.5419C69.0219 72.0618 67.0198 73.0046 64.88 73.2081C62.7401 73.4117 60.5962 72.8632 58.817 71.657L71.657 58.817ZM56.343 69.183C55.1368 67.4038 54.5883 65.2599 54.7918 63.12C54.9953 60.9801 55.9381 58.9781 57.4581 57.4581C58.978 55.9382 60.9801 54.9954 63.12 54.7918C65.2598 54.5883 67.4038 55.1368 69.183 56.343L56.343 69.183ZM71.679 53.846C69.229 51.9828 66.1867 51.0707 63.1158 51.2786C60.0449 51.4866 57.1534 52.8005 54.9769 54.9769C52.8005 57.1534 51.4866 60.0449 51.2786 63.1158C51.0707 66.1868 51.9828 69.229 53.846 71.679L46.381 79.145C42.5529 74.7034 40.5461 68.9784 40.7631 63.1188C40.9802 57.2592 43.405 51.6984 47.5511 47.5521C51.6973 43.4059 57.258 40.9808 63.1176 40.7636C68.9772 40.5464 74.7022 42.5531 79.144 46.381L71.679 53.846ZM56.321 74.154C58.771 76.0172 61.8132 76.9293 64.8841 76.7213C67.9551 76.5134 70.8466 75.1995 73.023 73.023C75.1995 70.8466 76.5134 67.9551 76.7213 64.8842C76.9293 61.8132 76.0172 58.771 74.154 56.321L81.619 48.855C85.4445 53.2972 87.4492 59.0214 87.231 64.8797C87.0128 70.738 84.5879 76.2973 80.4426 80.4426C76.2973 84.588 70.738 87.0128 64.8797 87.231C59.0214 87.4492 53.2971 85.4445 48.855 81.619L56.321 74.154ZM64 94.25C56.0126 94.2749 48.095 92.7641 40.678 89.8L46.378 84.1C51.4789 88.5858 58.0964 90.9612 64.8857 90.7435C71.6751 90.5258 78.1268 87.7314 82.9299 82.928C87.733 78.1246 90.5272 71.6728 90.7445 64.8834C90.9618 58.0941 88.586 51.4767 84.1 46.376L90.78 39.7C102.14 45.1805 111.851 53.5629 118.933 64C115.622 69.06 97.448 94.25 64 94.25Z" fill="#017FF4"/>
</svg>
