<svg width="24" height="24" viewBox="0 0 24 24" fill="none" xmlns="http://www.w3.org/2000/svg">
<path d="M18.3662 12.5576C18.3564 10.7656 19.167 9.41309 20.8076 8.41699C19.8896 7.10352 18.5029 6.38086 16.6719 6.23926C14.9385 6.10254 13.0439 7.25 12.3506 7.25C11.6182 7.25 9.93848 6.28809 8.62012 6.28809C5.89551 6.33203 3 8.46094 3 12.792C3 14.0713 3.23437 15.3929 3.70312 16.7568C4.32812 18.5488 6.58398 22.9434 8.9375 22.8701C10.168 22.8408 11.0371 21.9961 12.6387 21.9961C14.1914 21.9961 14.9971 22.8701 16.3691 22.8701C18.7422 22.8359 20.7832 18.8418 21.3789 17.0449C18.1953 15.5459 18.3662 12.6504 18.3662 12.5576V12.5576ZM15.6025 4.54004C16.9355 2.95801 16.8135 1.51758 16.7744 1C15.5977 1.06836 14.2354 1.80078 13.459 2.7041C12.6045 3.6709 12.1016 4.86719 12.209 6.21484C13.4834 6.3125 14.6455 5.6582 15.6025 4.54004V4.54004Z" fill="#848484"/>
</svg>
