<svg width="128" height="128" viewBox="0 0 128 128" fill="none" xmlns="http://www.w3.org/2000/svg">
<path d="M122.515 63.124C122.325 62.8 103.059 30.25 64 30.25C24.941 30.25 5.67497 62.8 5.48497 63.124C5.3312 63.3903 5.25024 63.6925 5.25024 64C5.25024 64.3075 5.3312 64.6097 5.48497 64.876C5.67497 65.205 24.941 97.75 64 97.75C103.059 97.75 122.325 65.205 122.515 64.876C122.669 64.6097 122.75 64.3075 122.75 64C122.75 63.6925 122.669 63.3903 122.515 63.124ZM64 94.25C30.552 94.25 12.378 69.06 9.06697 64C12.378 58.94 30.552 33.75 64 33.75C97.448 33.75 115.622 58.94 118.933 64C115.622 69.06 97.448 94.25 64 94.25Z" fill="#0D85F5"/>
<path d="M64 37.25C58.7094 37.25 53.5375 38.8189 49.1385 41.7582C44.7395 44.6975 41.3109 48.8753 39.2862 53.7632C37.2616 58.6511 36.7319 64.0297 37.764 69.2187C38.7962 74.4077 41.3439 79.1741 45.0849 82.9151C48.826 86.6562 53.5924 89.2039 58.7813 90.236C63.9703 91.2682 69.3489 90.7384 74.2368 88.7138C79.1247 86.6891 83.3025 83.2605 86.2418 78.8615C89.1812 74.4625 90.75 69.2907 90.75 64C90.7421 56.9079 87.9212 50.1085 82.9063 45.0937C77.8915 40.0788 71.0921 37.2579 64 37.25ZM64 87.25C59.4016 87.25 54.9064 85.8864 51.083 83.3317C47.2596 80.7769 44.2796 77.1458 42.5198 72.8974C40.7601 68.649 40.2996 63.9742 41.1968 59.4641C42.0939 54.9541 44.3082 50.8113 47.5598 47.5598C50.8114 44.3082 54.9541 42.0938 59.4642 41.1967C63.9742 40.2996 68.649 40.7601 72.8974 42.5198C77.1458 44.2795 80.7769 47.2595 83.3317 51.083C85.8864 54.9064 87.25 59.4016 87.25 64C87.2431 70.1642 84.7914 76.0739 80.4326 80.4326C76.0739 84.7914 70.1642 87.2431 64 87.25Z" fill="#0D85F5"/>
<path d="M64 51.25C61.4783 51.25 59.0132 51.9978 56.9165 53.3988C54.8198 54.7997 53.1856 56.791 52.2205 59.1208C51.2555 61.4505 51.003 64.0141 51.495 66.4874C51.987 68.9607 53.2013 71.2325 54.9844 73.0156C56.7675 74.7987 59.0393 76.0131 61.5126 76.505C63.9859 76.997 66.5495 76.7445 68.8792 75.7795C71.209 74.8144 73.2003 73.1802 74.6012 71.0835C76.0022 68.9868 76.75 66.5217 76.75 64C76.746 60.6197 75.4015 57.379 73.0112 54.9888C70.621 52.5985 67.3803 51.254 64 51.25ZM64 73.25C62.1705 73.25 60.3821 72.7075 58.861 71.6911C57.3398 70.6747 56.1542 69.23 55.4541 67.5398C54.754 65.8496 54.5708 63.9897 54.9277 62.1954C55.2847 60.4011 56.1656 58.7529 57.4593 57.4593C58.7529 56.1656 60.4011 55.2846 62.1954 54.9277C63.9897 54.5708 65.8496 54.754 67.5398 55.4541C69.23 56.1542 70.6747 57.3398 71.6911 58.861C72.7075 60.3821 73.25 62.1705 73.25 64C73.2474 66.4524 72.272 68.8037 70.5378 70.5378C68.8037 72.2719 66.4524 73.2474 64 73.25Z" fill="#0D85F5"/>
</svg>
